<?xml version="1.0" encoding="utf-8"?>
<!-- Generator: Adobe Illustrator 21.0.0, SVG Export Plug-In . SVG Version: 6.00 Build 0)  -->
<svg version="1.1" id="Layer_1" xmlns="http://www.w3.org/2000/svg" xmlns:xlink="http://www.w3.org/1999/xlink" x="0px" y="0px"
	 viewBox="0 0 38.8 31.3" style="enable-background:new 0 0 38.8 31.3;" xml:space="preserve">
<style type="text/css">
	.st0{fill:#1AAEE4;}
</style>
<g>
	<path class="st0" d="M10.8,25.1l-6.7-6.7c-0.3-0.3-0.3-0.8,0-1.1l1-1c0.3-0.3,0.8-0.3,1.1,0l5,5L23.2,6.2c0.3-0.3,0.7-0.4,1-0.1
		L25.4,7c0.3,0.3,0.4,0.7,0.1,1L11.9,25C11.6,25.4,11.1,25.4,10.8,25.1z"/>
	<path class="st0" d="M20,25.1l-2.7-2.7c-0.3-0.3-0.3-0.8,0-1l1-1c0.3-0.3,0.8-0.3,1,0l1,1L32.4,6.2c0.3-0.3,0.7-0.4,1-0.1L34.6,7
		c0.3,0.3,0.4,0.7,0.1,1L21.1,25C20.8,25.4,20.3,25.4,20,25.1z"/>
</g>
</svg>
