<?xml version="1.0" standalone="no"?>
<!DOCTYPE svg PUBLIC "-//W3C//DTD SVG 20010904//EN"
 "http://www.w3.org/TR/2001/REC-SVG-20010904/DTD/svg10.dtd">
<svg version="1.0" xmlns="http://www.w3.org/2000/svg"
 width="130.000000pt" height="130.000000pt" viewBox="0 0 130.000000 130.000000"
 preserveAspectRatio="xMidYMid meet">

<g transform="translate(0.000000,130.000000) scale(0.100000,-0.100000)"
fill="#000000" stroke="none">
<path d="M638 1158 c-9 -7 -18 -26 -20 -43 -2 -24 1 -31 18 -33 17 -2 23 4 28
29 12 61 6 71 -26 47z"/>
<path d="M685 1161 c-3 -5 -1 -12 5 -16 5 -3 10 1 10 9 0 18 -6 21 -15 7z"/>
<path d="M731 1128 c-8 -19 -24 -113 -26 -153 0 -5 8 -9 19 -7 12 2 16 -1 10
-9 -4 -7 -3 -10 3 -6 6 4 14 34 18 67 4 33 11 60 16 60 5 0 8 15 6 32 -3 41
-32 50 -46 16z"/>
<path d="M826 1023 c-42 -66 -43 -73 -16 -80 11 -3 20 -9 20 -14 0 -5 8 -9 18
-9 10 0 32 24 55 61 21 34 36 62 35 63 -2 1 -15 10 -30 19 -15 9 -32 17 -37
17 -5 0 -26 -26 -45 -57z m55 4 c-10 -9 -11 -8 -5 6 3 10 9 15 12 12 3 -3 0
-11 -7 -18z m-21 -37 c-6 -11 -13 -20 -16 -20 -2 0 0 9 6 20 6 11 13 20 16 20
2 0 0 -9 -6 -20z"/>
<path d="M458 954 c-21 -26 -38 -56 -38 -68 0 -14 -3 -17 -8 -8 -10 15 -34 -8
-52 -48 -9 -22 -9 -21 -4 10 6 33 6 34 -12 20 -10 -8 -15 -10 -11 -3 4 6 -14
29 -45 56 -48 41 -51 47 -38 63 14 18 14 18 -7 1 -20 -18 -83 -126 -83 -144 0
-4 23 -16 51 -26 55 -20 139 -94 139 -123 0 -13 -5 -11 -25 10 -13 14 -28 26
-33 26 -5 0 -31 -25 -57 -56 l-48 -55 39 -40 39 -40 32 37 c29 33 34 35 50 23
12 -10 10 -5 -4 14 l-22 29 49 63 c27 34 46 66 43 69 -4 3 1 6 10 6 10 0 17 7
17 15 0 8 -4 15 -10 15 -28 0 -1 117 35 148 14 12 25 26 25 31 0 5 12 12 28
14 26 4 26 4 2 5 -19 2 -35 -10 -62 -44z m-48 -112 c0 -19 -5 -29 -15 -29 -18
0 -19 11 -5 38 15 26 20 24 20 -9z m-120 -172 c0 -5 -5 -10 -11 -10 -5 0 -7 5
-4 10 3 6 8 10 11 10 2 0 4 -4 4 -10z m-23 -72 c-3 -8 -6 -5 -6 6 -1 11 2 17
5 13 3 -3 4 -12 1 -19z"/>
<path d="M601 967 c2 -1 15 -11 29 -22 l25 -20 -19 23 c-11 12 -24 22 -29 22
-6 0 -8 -1 -6 -3z"/>
<path d="M972 922 c-28 -26 -52 -51 -52 -56 0 -6 12 -22 26 -37 26 -27 26 -27
45 -8 11 11 25 17 31 13 6 -4 8 -3 5 3 -4 6 8 24 27 41 l34 30 -25 31 c-14 17
-29 31 -32 31 -3 -1 -30 -22 -59 -48z m68 -5 c0 -1 -21 -20 -47 -42 l-48 -38
40 41 c33 36 55 51 55 39z"/>
<path d="M510 934 c0 -8 5 -12 10 -9 6 4 8 11 5 16 -9 14 -15 11 -15 -7z"/>
<path d="M550 939 c0 -5 5 -7 10 -4 6 3 10 8 10 11 0 2 -4 4 -10 4 -5 0 -10
-5 -10 -11z"/>
<path d="M651 894 c0 -11 3 -14 6 -6 3 7 2 16 -1 19 -3 4 -6 -2 -5 -13z"/>
<path d="M490 865 c0 -19 23 -46 36 -41 8 3 14 1 14 -4 0 -6 -4 -10 -10 -10
-5 0 -10 -9 -10 -20 0 -14 7 -20 24 -20 13 0 26 -6 29 -12 2 -7 8 -10 12 -6 4
4 -7 16 -24 26 -35 21 -28 36 19 45 24 4 24 4 -3 6 -16 0 -42 10 -58 22 -16
11 -29 18 -29 14z"/>
<path d="M132 778 c-17 -17 -15 -42 8 -71 22 -28 25 -43 10 -52 -15 -9 -40 14
-40 37 0 10 -4 16 -10 13 -19 -12 -10 -42 16 -54 57 -26 92 20 54 71 -24 33
-21 69 5 48 8 -7 15 -20 15 -29 1 -14 2 -13 11 2 19 32 -41 63 -69 35z"/>
<path d="M674 765 c-10 -8 -32 -15 -49 -16 -30 -2 -29 -2 5 -8 27 -5 38 -2 48
11 9 12 26 18 53 18 38 0 47 -11 40 -52 0 -5 4 -8 9 -8 9 0 5 42 -7 63 -7 13
-78 8 -99 -8z"/>
<path d="M936 772 c-3 -5 1 -9 9 -9 8 0 12 4 9 9 -3 4 -7 8 -9 8 -2 0 -6 -4
-9 -8z"/>
<path d="M951 704 c0 -11 3 -14 6 -6 3 7 2 16 -1 19 -3 4 -6 -2 -5 -13z"/>
<path d="M779 674 c12 -15 21 -39 21 -54 0 -34 21 -32 66 7 l29 25 -32 -21
c-37 -25 -53 -27 -53 -5 0 20 -31 74 -43 74 -5 0 1 -12 12 -26z"/>
<path d="M906 684 c-5 -14 -4 -15 9 -4 17 14 19 20 6 20 -5 0 -12 -7 -15 -16z"/>
<path d="M599 673 c-13 -17 -13 -17 6 -3 11 8 22 16 24 17 2 2 0 3 -6 3 -6 0
-17 -8 -24 -17z"/>
<path d="M706 676 c3 -8 -2 -16 -13 -19 -12 -3 -8 -5 10 -6 25 -1 27 1 17 19
-12 23 -22 27 -14 6z"/>
<path d="M969 623 c-9 -27 -19 -57 -23 -68 -8 -20 -7 -20 8 -1 9 11 16 16 16
10 1 -19 40 39 40 60 0 15 -6 11 -20 -19 -11 -22 -18 -31 -14 -20 9 31 17 85
12 85 -2 0 -11 -21 -19 -47z"/>
<path d="M407 653 c-23 -22 39 -109 102 -143 18 -9 20 -8 14 7 -10 29 -25 44
-39 39 -16 -6 -43 25 -58 68 -7 20 -16 33 -19 29z"/>
<path d="M40 626 c0 -10 8 -16 23 -16 37 0 53 -21 67 -85 73 -347 423 -545
751 -426 31 11 95 22 149 25 52 4 118 9 146 12 l50 6 -19 136 c-25 181 -25
182 -42 182 -19 0 -19 -8 4 -160 10 -69 17 -127 15 -129 -2 -2 -55 -8 -117
-13 -202 -16 -417 6 -514 53 -66 32 -151 116 -228 224 -37 53 -84 109 -104
126 -70 58 -181 98 -181 65z"/>
<path d="M452 613 c2 -9 9 -18 16 -21 18 -6 15 25 -4 32 -11 4 -14 1 -12 -11z"/>
<path d="M874 565 c-27 -30 -48 -45 -65 -45 -13 0 -32 -9 -42 -20 -13 -16 -22
-18 -36 -11 -10 6 -21 7 -25 3 -4 -3 -12 0 -17 8 -9 13 -10 12 -5 -2 8 -26
-11 -31 -34 -8 -24 24 -29 24 -64 6 l-27 -14 27 -6 c57 -15 181 -23 234 -16
53 7 54 7 15 10 -22 2 -49 3 -60 2 -12 -1 -4 7 20 19 43 23 101 73 116 102 14
26 8 21 -37 -28z"/>
<path d="M490 580 c0 -5 5 -10 11 -10 5 0 7 5 4 10 -3 6 -8 10 -11 10 -2 0 -4
-4 -4 -10z"/>
<path d="M477 465 c-5 -11 0 -13 22 -9 16 3 31 2 35 -4 8 -13 -31 -125 -49
-138 -12 -9 -11 -13 10 -22 21 -10 25 -9 25 6 0 9 10 45 22 80 24 67 42 77 64
33 l12 -23 7 22 c8 26 13 21 -58 48 -69 26 -83 27 -90 7z"/>
<path d="M650 384 c0 -8 5 -12 10 -9 6 3 10 10 10 16 0 5 -4 9 -10 9 -5 0 -10
-7 -10 -16z"/>
<path d="M1033 362 c-21 -2 -33 -9 -33 -18 0 -8 4 -13 9 -10 9 6 26 -43 18
-51 -3 -2 -18 12 -35 33 -28 34 -32 36 -71 29 -38 -6 -58 -25 -27 -25 17 0 33
-73 17 -78 -6 -2 -11 -9 -11 -16 0 -7 14 -10 40 -8 41 4 52 15 25 26 -9 3 -15
17 -15 33 l1 28 33 -38 c24 -29 39 -38 57 -35 22 3 24 7 21 51 -2 26 1 54 8
62 14 17 4 21 -37 17z"/>
<path d="M642 331 c-11 -6 -10 -10 3 -15 14 -5 17 -15 13 -50 -5 -42 -4 -43
21 -38 14 3 20 7 14 9 -7 3 -13 17 -13 31 0 34 -10 72 -19 72 -3 0 -12 -4 -19
-9z"/>
</g>
</svg>
